<?xml version="1.0" encoding="UTF-8" standalone="no"?>
<!-- Created with Inkscape (http://www.inkscape.org/) -->

<svg
   width="212"
   height="432"
   id="svg2"
   version="1.1"
   inkscape:version="1.2.2 (b0a8486541, 2022-12-01)"
   sodipodi:docname="logo-dark.svg"
   xmlns:inkscape="http://www.inkscape.org/namespaces/inkscape"
   xmlns:sodipodi="http://sodipodi.sourceforge.net/DTD/sodipodi-0.dtd"
   xmlns="http://www.w3.org/2000/svg"
   xmlns:svg="http://www.w3.org/2000/svg"
   xmlns:rdf="http://www.w3.org/1999/02/22-rdf-syntax-ns#"
   xmlns:cc="http://creativecommons.org/ns#"
   xmlns:dc="http://purl.org/dc/elements/1.1/">
  <defs
     id="defs4" />
  <sodipodi:namedview
     id="base"
     pagecolor="#ffffff"
     bordercolor="#666666"
     borderopacity="1.0"
     inkscape:pageopacity="0.0"
     inkscape:pageshadow="2"
     inkscape:zoom="1.6875"
     inkscape:cx="42.074074"
     inkscape:cy="277.03704"
     inkscape:document-units="px"
     inkscape:current-layer="layer1"
     showgrid="false"
     inkscape:window-width="1916"
     inkscape:window-height="1159"
     inkscape:window-x="1920"
     inkscape:window-y="18"
     inkscape:window-maximized="1"
     inkscape:showpageshadow="0"
     inkscape:pagecheckerboard="0"
     inkscape:deskcolor="#d1d1d1"
     showguides="true">
    <sodipodi:guide
       position="98.9499,372.24735"
       orientation="0,-1"
       id="guide521"
       inkscape:locked="false" />
  </sodipodi:namedview>
  <metadata
     id="metadata7">
    <rdf:RDF>
      <cc:Work
         rdf:about="">
        <dc:format>image/svg+xml</dc:format>
        <dc:type
           rdf:resource="http://purl.org/dc/dcmitype/StillImage" />
      </cc:Work>
    </rdf:RDF>
  </metadata>
  <g
     inkscape:label="Layer 1"
     inkscape:groupmode="layer"
     id="layer1"
     transform="translate(-297.8613,-293.42662)">
    <path
       style="fill:#222222;fill-opacity:1;stroke-width:1;stroke-dasharray:none"
       d="m 397.96305,716.28946 c -1.65,-0.8629 -5.96459,-4.47296 -9.58797,-8.02235 -3.65501,-3.58038 -8.90242,-7.52574 -11.78666,-8.86203 -10.23155,-4.74035 -18.84394,-16.70828 -22.64408,-31.46663 -2.41818,-9.39134 -1.73121,-26.65884 1.3296,-33.42034 3.20684,-7.0841 8.20062,-12.7238 14.11857,-15.94475 4.14131,-2.25398 5.44494,-2.56907 6.61423,-1.59865 2.29055,1.90099 1.79118,2.77618 -3.41022,5.97663 -14.89153,9.16285 -18.65828,32.80231 -8.70118,54.60712 2.18516,4.78523 9.36251,13.91852 10.2446,13.03643 0.21803,-0.21803 -0.54123,-2.77525 -1.68725,-5.68272 -2.32526,-5.89923 -2.05625,-7.97372 1.034,-7.97372 1.57894,0 2.70399,1.39858 4.62547,5.75 5.58355,12.64468 18.65347,28.2839 24.96007,29.86676 5.78319,1.45149 16.34582,-9.69151 24.04555,-25.36676 3.84927,-7.83641 4.91053,-9.25 6.94445,-9.25 2.86071,0 3.11243,2.05263 0.90082,7.34576 -2.40116,5.74679 -1.77067,6.32444 2.42804,2.2245 8.29967,-8.1044 13.56248,-23.90095 12.85016,-38.57026 -0.61505,-12.66617 -5.47513,-21.62723 -14.9859,-27.63111 -4.02673,-2.54197 -4.29027,-3.03342 -2.8486,-5.31203 0.76094,-1.20269 1.38321,-1.23307 3.73469,-0.18234 8.90252,3.97798 15.91756,12.22849 18.75407,22.05698 3.23779,11.2189 1.59397,27.73536 -3.97372,39.92654 -4.95078,10.84034 -13.92663,19.98523 -21.43847,21.8422 -1.38615,0.34266 -3.18641,1.56279 -4.00057,2.71139 -9.13897,12.893 -19.49257,18.13734 -27.5197,13.93938 z m 37.40881,-355.46491 c 0.38997,4.48885 0.56784,5.6679 1.4719,7.34381 1.5079,2.79521 3.27202,7.26795 3.27202,7.26795 l -3.97302,0.178 c 0,0 -2.17477,-2.54077 -3.42082,-5.53269 -1.06824,-2.56499 -4.79325,-10.09708 -4.68871,-10.06526 m 3.9213,-7.95678 c -7.4311,-12.001 -25.88897,-34.22998 -27.22364,-34.20739 -2.42767,0.0411 -34.35827,39.11385 -33.65802,41.15006 0.05,0.57192 -0.50072,1.31074 -1.0737,1.34669 -1.32918,0.089 -3.60739,-0.56653 -4.31542,-1.14193 -1.20497,-0.97924 3.65662,-5.10925 9.24842,-12.45333 5.26382,-6.9133 12.10297,-15.19906 11.45847,-15.9042 -0.74717,-0.81748 -5.8708,0.33846 -13.8865,7.32566 -12.68245,11.05514 -18.60689,19.72754 -20.69474,34.47048 l -1.03329,7.29637 5.0651,4.97287 c 4.85723,4.76878 11.44053,14.81647 19.50955,28.2736 5.68655,9.48376 6.98897,9.10208 7.98188,5.03728 1.37733,-8.79389 -3.7387,-50.72861 8.06178,-53.28728 0.37753,0 1.44943,0.5625 2.38201,1.25 1.58487,1.16838 -0.9338,1.05883 -2.86047,6.11579 -6.3743,16.73072 -4.63933,33.83029 -1.42067,52.06596 0.97157,5.50454 2.52365,10.90002 2.9736,12.08347 0.44994,1.18345 0.42167,2.78916 -0.0628,3.56825 -1.37559,2.21198 -15.52785,1.51235 -29.44296,-1.45554 -6.6,-1.40769 -17.06528,-3.65237 -23.25618,-4.98819 -6.19089,-1.33583 -11.47366,-2.07686 -11.73948,-1.64676 -0.26583,0.43011 4.57707,7.03401 10.76199,14.67533 19.12349,23.62664 27.32026,36.34804 36.4923,56.63611 5.30494,11.73424 5.47432,12.37699 4.94024,18.74747 -1.1399,13.59671 -7.5193,30.4306 -16.59885,43.80082 -6.07002,8.9385 -6.10699,8.68922 1.28555,8.66678 5.69419,-0.0173 6.85882,0.33061 10.26853,3.06734 4.98052,3.99749 9.69697,13.42014 12.45642,24.88573 2.43017,10.0974 3.70626,37.65594 2.20075,47.52744 -0.75726,4.96522 -1.08031,5.5 -3.32252,5.5 h -2.4837 l -0.0629,-21 c -0.0763,-25.46894 -2.13332,-36.47184 -9.01332,-48.21166 -3.46847,-5.91851 -7.47959,-7.88519 -12.84118,-6.29615 -6.50394,1.92762 -22.25201,18.38718 -26.96246,28.18061 -6.12977,12.74432 -6.87486,31.38708 -2.07001,51.79353 3.77439,16.03019 17.62981,37.03367 24.43006,37.03367 3.50972,0 5.05324,1.86825 5.73346,6.93968 0.93132,6.94345 -2.49326,8.65112 -8.10802,7.52817 l -5e-5,-10e-6 c -1.16859,-0.23372 -1.84519,-3.20518 -2.2278,-5.25 -0.4817,-2.57438 -2.12023,-5.10188 -5.32749,-8.21785 -2.54751,-2.475 -6.28191,-6.525 -8.29868,-9 l -3.66686,-4.5 -0.0449,4.02749 c -0.0782,7.01144 -4.64436,10.73023 -8.47351,6.90108 -2.16201,-2.16201 -1.98352,-8.66695 0.35769,-13.03513 2.27186,-4.23882 1.76666,-6.39344 -1.49909,-6.39344 -1.29579,0 -4.52726,-0.85583 -7.18103,-1.90185 -2.69298,-1.06148 -6.02592,-1.67229 -7.54276,-1.38233 -3.48081,0.6654 -5.48793,-1.0352 -6.2942,-5.33297 -1.14661,-6.11199 2.56534,-11.47997 6.81163,-9.85051 1.61956,0.62148 3.77633,4.63618 3.77633,7.02941 0,1.85884 5.76979,5.42958 8.78138,5.43451 1.25477,0.002 2.53497,-0.65708 2.8449,-1.46475 0.30994,-0.80768 -0.25878,-6.09518 -1.26382,-11.75 -1.22997,-6.92042 -1.80476,-14.8582 -1.75825,-24.28151 0.099,-20.04854 1.88636,-24.2556 22.30504,-52.5 19.18918,-26.54369 25.24379,-39.17882 27.55331,-57.5 0.7215,-5.72353 0.41234,-12.36145 -7.92585,-28.61108 -7.30949,-14.2449 -13.81296,-24.17801 -29.4633,-43.70497 -14.46916,-18.05322 -26.54139,-34.45143 -26.40433,-34.80035 0.19205,-0.4889 1.76998,-5.62244 3.50617,-8.68367 14.29848,-25.211 15.68079,-26.21106 21.16624,-43.6304 6.96132,-22.10603 9.45328,-15.82698 -5.05981,-25.97469 -12.35114,-8.63605 -12.90138,-8.50962 -14.41451,-7.27381 -0.69681,0.56911 -2.28552,2.09098 -2.66727,1.89171 -0.31112,-0.1624 -4.47184,-3.24102 -4.70955,-4.23202 -0.38934,-1.62314 -1.70991,-2.24994 0.97614,-6.83332 1.49795,-2.55607 3.09409,-4.6474 3.54697,-4.6474 0.45288,0 1.80669,1.59096 3.00846,3.53547 1.20177,1.9445 0.22307,4.33687 8.31313,10.36995 3.3285,2.48219 6.64628,4.94982 10.05413,6.99534 2.82926,1.69823 7.07393,3.08544 7.38475,2.77461 0.31083,-0.31082 1.60626,-2.49434 0.90422,-4.50711 -0.70245,-2.01277 -3.621,-9.70979 -4.25971,-12.74998 -1.82536,-8.6886 -3.9246,-3.65756 -5.61149,-6.6483 -1.63533,-2.89932 -2.08034,-1.30992 0.73394,-7.24954 1.23366,-2.60367 2.75897,-4.93974 3.52601,-5.06179 0,0 1.91358,1.79701 3.82807,4.19844 4.41879,5.54267 2.4285,4.55099 0.90207,7.05334 -1.47447,2.41716 -2.74172,0.11567 -0.0257,10.03577 2.77971,10.15269 3.82672,10.10888 4.98562,7.63118 8.35911,-17.87155 9.23466,-17.78291 6.98139,-19.39207 -2.37467,-1.69585 2.98267,-12.27576 4.20271,-11.52173 0.47818,0.29553 2.04961,2.55118 3.49207,5.01255 l 2.62266,4.47522 -2.63644,4.27433 c -1.19267,1.93362 -3.08019,0.5327 -3.54666,1.23831 -0.54886,0.83024 -5.61991,10.02972 -8.47528,17.87819 -9.73919,26.76981 -19.45364,54.56289 -28.53812,69.6324 -6.09904,10.1172 -8.08275,9.96373 -0.64929,18.08351 6.01152,6.56656 5.37931,4.43204 27.85256,9.17117 26.98954,5.69152 38.69531,6.81478 40.36393,5.78351 0.81036,-0.50083 -0.35796,-4.32805 -1.18157,-7.53991 -1.83744,-7.16592 -3.30506,-4.45231 -5.47773,-4.64008 -3.14478,-0.27179 -3.79289,-1.58008 -8.75934,-9.92875 -9.33454,-15.69151 -15.87118,-22.58492 -21.88906,-28.48665 l -4.80501,-4.71227 1.24503,-6.50681 c 2.90505,-15.18244 6.72376,-24.96607 23.79644,-39.20779 8.36302,-6.97628 15.64244,-9.11485 18.05544,-8.6634 2.09038,0.39108 2.18343,-0.55597 8.77638,-7.73075 6.17334,-6.71816 4.96789,-7.06786 7.97614,-7.34339 1.04437,-0.0957 3.83918,4.65705 7.25591,8.54775 6.52789,7.43344 8.20472,8.02634 8.49843,7.92366 1.6319,-0.57051 4.45205,-3.1942 13.54681,4.58243 17.72757,15.15825 22.33948,22.74672 26.08639,42.09467 l 1.3542,6.99269 -5.75778,4.23048 c -2.75619,2.02508 -9.47326,10.34268 -15.69861,19.60857 -10.1546,15.11423 -9.39333,17.89449 -11.56611,17.47913 -1.33204,-0.25463 -3.41138,-0.21891 -3.80709,0.39481 -1.451,2.2505 -5.24072,12.08221 -4.41918,12.9298 0.98165,1.01277 18.07315,-1.63076 34.04405,-5.3026 6.03728,-1.38801 15.35263,-4.96505 21.17987,-4.9523 l 9.19028,0.0201 5.23465,-6.37809 2.3859,-5.45528 -8.04746,-18.2643 c -8.50106,-19.29378 -15.07549,-32.63163 -24.54924,-60.35531 -2.53727,-7.425 -7.9432,-21.18228 -7.9432,-21.18228 -2.63499,0.46844 -7.15102,-2.80877 -7.15102,-4.52114 0,-1.30618 7.06042,-8.64579 8.31691,-8.64579 1.12152,0 5.31604,5.59472 3.22736,9.27804 -1.89047,3.33378 6.04488,25.4966 7.17977,25.4966 1.12672,0 6.51018,-14.90861 6.51018,-18.31222 0,-1.51957 -3.68422,-2.6225 -4.23422,-2.96242 -1.98163,-1.22472 -0.9294,-4.16304 2.79216,-7.79705 2.08569,-2.03662 4.25062,-3.70295 4.81095,-3.70295 0.56034,0 1.58667,2.21576 2.28075,4.92391 1.08402,4.22963 0.86271,6.48639 -1.13923,7.41397 -3.13903,1.45444 -8.69796,24.74801 -7.88521,25.56075 0.3193,0.3193 6.80797,-3.94684 9.72197,-6.38409 2.914,-2.43725 10.13359,-7.7451 13.04438,-9.18095 0,0 0.0221,-3.51804 0.39694,-6.02202 0.32837,-2.19339 4.66572,-4.31157 5.12222,-4.31157 1.15647,0 5.85507,7.62359 5.85507,9.5 0,1.86613 -4.69568,9.5 -5.84356,9.5 -0.45017,0 -1.42056,-1.125 -2.15644,-2.5 -0.73588,-1.375 -2.58051,-2.97034 -3.07597,-2.97034 -3.35802,0 -21.47344,15.21411 -21.47344,18.17044 0,5.00462 18.76672,47.50395 27.20439,61.50835 3.41107,5.66151 3.42544,5.73552 1.74765,9 -2.90316,5.64871 -11.00123,13.7988 -24.72416,31.64854 -14.85177,19.31803 -22.06481,31.48938 -29.98437,47.40438 -9.9973,20.09039 -8.10491,19.97483 -6.41226,29.78331 2.78531,16.14027 8.98605,28.32961 27.17523,53.42067 12.71092,17.53409 15.9016,22.73261 19.35487,31.53465 2.33439,5.95012 2.54896,7.76896 2.5363,21.5 -0.01,10.56158 -0.52233,17.21921 -1.73235,22.5 -0.94519,4.125 -1.99072,9.03278 -2.3234,10.90619 l -0.60487,3.40619 3.76196,-0.61049 c 5.27348,-0.85578 8.55042,-3.24147 8.55042,-6.22494 0,-2.66337 3.1471,-6.47695 5.34501,-6.47695 3.6176,0 6.26982,6.93786 4.54437,11.88749 -1.08766,3.12005 -4.63472,5.00597 -6.84548,3.63964 -0.58837,-0.36363 -3.55583,0.269 -6.59435,1.40586 -3.03851,1.13686 -6.40769,2.06701 -7.48706,2.06701 -2.41457,0 -2.67362,4.4757 -0.43069,7.44113 0.80751,1.06762 1.4682,3.60527 1.4682,5.63922 0,8.58624 -7.85861,10.87216 -10.00271,2.90959 -0.94479,-3.50868 -2.99729,-5.60082 -2.99729,-3.05517 0,0.51412 -3.375,4.35386 -7.5,8.53276 -4.98029,5.04536 -7.5,8.37482 -7.5,9.91024 0,2.60307 -2.83111,5.62223 -5.27204,5.62223 -4.19187,0 -6.28235,-9.33579 -3.10594,-13.87075 1.21849,-1.73964 2.27581,-2.18686 4.25,-1.79767 2.21489,0.43665 3.62251,-0.49632 8.9549,-5.93523 10.59873,-10.81047 17.01998,-26.94779 19.20833,-48.27267 2.32596,-22.66587 -2.44315,-37.35239 -16.83218,-51.83494 -15.03158,-15.12927 -23.9487,-15.71589 -30.62656,-2.0148 -5.71564,11.72691 -6.9439,19.25638 -7.13288,43.72606 l -0.17377,22.5 h -2.32136 c -3.58837,0 -4.21244,-4.61329 -3.65248,-27 0.40824,-16.32099 0.89934,-21.45733 2.66976,-27.92242 5.27597,-19.26642 13.13384,-27.54642 24.83674,-26.17097 6.38674,0.75064 6.38722,0.70819 0.0975,-8.5539 -8.70562,-12.81952 -15.18165,-29.68367 -16.456,-42.85271 -0.57874,-5.98065 -0.33733,-7.17915 3.02135,-15 8.92797,-20.78921 20.11207,-38.99007 38.40511,-62.5 9.1633,-11.77653 9.89872,-13.02804 7.8142,-13.29791 -1.2656,-0.16386 -10.99281,0.39715 -19.4858,2.32495 -28.75386,6.52677 -40.62194,6.72112 -41.94667,5.37038 -1.49015,-1.51941 -0.96813,-1.7233 1.48925,-11.46814 4.91782,-19.50183 4.34809,-36.322 -1.89599,-53.63204 -2.80023,-7.76288 -4.0749,-8.79724 -0.84132,-8.79724 2.46441,0 4.56529,10.02525 5.77432,14.51463 1.76741,6.56281 4.09145,13.53741 4.10065,24.56751 0.006,7.5625 -1.69514,15.57172 0.33698,15.59743 0.78916,0.01 5.72882,-8.09891 11.01994,-15.97343 5.29112,-7.87453 11.50242,-16.56049 13.77626,-19.27346 3.94693,-4.70918 4.74788,-5.4148 4.70521,-10.33789 -0.14937,-17.23215 -14.43483,-35.04359 -28.59682,-42.40656 -0.89526,-0.46545 -3.22227,0.33153 -2.60063,1.26528 7.51552,11.28871 18.13095,27.95921 16.26018,27.51155 l -3.69927,-0.8852 m -67.465,309.86193 c -0.94571,0 -0.61602,-3.84088 -0.61602,-6.57321 0,-2.73233 -0.71549,-6.35147 -1.58997,-8.04253 -1.41911,-2.74425 -1.42744,-3.23718 -0.0775,-4.58708 0.83184,-0.83184 2.20403,-1.24704 3.04931,-0.92267 3.09445,1.18745 9.92794,17.84964 8.0361,19.59454 -0.50484,0.46563 -2.55319,1.13678 -4.55188,1.49145 -2.81942,0.50029 -2.91594,-0.9605 -4.25,-0.9605 z m 62.88398,0.66054 c 2.73785,0 -2.98919,-1.04779 -2.90057,-4.2167 0.11324,-4.04951 5.06422,-14.66905 7.56675,-16.23021 1.19785,-0.74726 2.10395,-0.6761 3.22366,0.25319 1.38488,1.14934 1.39417,1.60843 0.0838,4.14235 -0.81051,1.56736 -1.4798,5.0096 -1.48731,7.64941 -0.017,5.97983 -0.87698,9.33543 -2.35298,9.18135 -0.62335,-0.0651 -5.82296,-0.77939 -4.13337,-0.77939 z M 378.80889,359.74664 c -0.90182,3.51832 -3.25563,8.27464 -3.65645,10.13619 -0.46873,2.17698 -2.28427,5.27303 -2.28427,5.27303 -8.9375,-0.23227 -4.11447,0.45562 -5.03234,0.17231 0,0 3.36785,-4.62943 3.53539,-5.99881 0.33745,-2.75798 0.78621,-8.26612 0.89075,-8.2343"
       id="path3050"
       inkscape:connector-curvature="0"
       sodipodi:nodetypes="ssssssssssssssssssssssssssscsccsccsccssssscssccssssssssssssssssscsssssssssssscsssssssssssssssssssssssssssssscssssssssssscssssssssssscssssssssscssssssscccsssssssssssssssssssssssssssssscsscssssssssssssssssssssscssssssssssssssscssssssscsssssssssssssssssscsccsc" />
  </g>
</svg>
